<?xml version="1.0" encoding="utf-8"?>
<!-- Generator: Adobe Illustrator 26.0.1, SVG Export Plug-In . SVG Version: 6.00 Build 0)  -->
<svg version="1.1" id="Layer_1" xmlns="http://www.w3.org/2000/svg" xmlns:xlink="http://www.w3.org/1999/xlink" x="0px" y="0px"
	 viewBox="0 0 26 22" style="enable-background:new 0 0 26 22;" xml:space="preserve">
<style type="text/css">
	.st0{fill:#00868A;}
</style>
<path class="st0" d="M13.1,6.3c-0.6,0-1.3,0.1-1.8,0.4c-0.6,0.3-1.1,0.6-1.5,1C9.3,8.1,9,8.6,8.7,9.2C8.5,9.8,8.3,10.4,8.3,11
	s0.1,1.3,0.4,1.8s0.6,1.1,1,1.5c0.4,0.4,0.9,0.7,1.5,1c0.6,0.2,1.2,0.4,1.8,0.4c0.9,0,1.7-0.2,2.4-0.6c0.7-0.4,1.3-1,1.7-1.7
	c0.4-0.7,0.6-1.5,0.6-2.4c0-1.3-0.5-2.4-1.4-3.3C15.5,6.8,14.4,6.3,13.1,6.3z M13.1,14.2c-0.6,0-1.1-0.1-1.6-0.4
	c-0.5-0.3-0.9-0.7-1.2-1.2c-0.3-0.5-0.4-1-0.4-1.6c0-0.4,0.1-0.8,0.2-1.2c0.2-0.4,0.4-0.7,0.7-1c0.3-0.3,0.6-0.5,1-0.7
	c0.4-0.2,0.8-0.2,1.2-0.2c0.9,0,1.6,0.3,2.2,0.9c0.6,0.6,0.9,1.4,0.9,2.2c0,0.9-0.3,1.6-0.9,2.2C14.7,13.9,13.9,14.2,13.1,14.2z
	 M25.6,10.8C25.6,10.8,25.6,10.8,25.6,10.8c0-0.1,0-0.1,0-0.1c0,0,0,0,0,0l0,0v0l0,0C24.4,8,22.7,6,20.5,4.5
	c-2.3-1.5-4.7-2.2-7.4-2.2c-1.8,0-3.4,0.3-5.1,1S4.9,4.9,3.6,6.1s-2.4,2.7-3.1,4.5v0.1l0,0v0.1l0,0c0,0.1,0,0.2,0,0.2
	c0,0,0,0.1,0,0.1c0,0,0,0.1,0,0.1c0,0,0,0,0,0.1v0l0,0l0,0v0.1c1.1,2.6,2.8,4.6,5.1,6c2.3,1.4,4.8,2.2,7.4,2.2
	c1.8,0,3.4-0.3,5.1-0.9c1.6-0.6,3.1-1.6,4.4-2.8c1.3-1.2,2.3-2.7,3.1-4.4c0,0,0,0,0,0v0l0,0l0,0v-0.1l0,0c0-0.1,0-0.2,0-0.2
	C25.6,11,25.6,11,25.6,10.8C25.6,10.9,25.6,10.9,25.6,10.8z M13,18.1c-2.3,0-4.5-0.6-6.5-1.8S3,13.3,2,11c1-2.3,2.6-4,4.6-5.3
	c2-1.2,4.2-1.9,6.5-1.9c1.5,0,3,0.3,4.3,0.8c1.4,0.5,2.7,1.3,3.8,2.4c1.2,1.1,2.1,2.4,2.8,3.9c-1,2.3-2.5,4-4.5,5.2
	S15.3,18.1,13,18.1z"/>
</svg>
