<svg version="1.1" id="Layer_1" xmlns="http://www.w3.org/2000/svg" x="0" y="0" viewBox="0 0 95.5 85.3" xml:space="preserve"><style/><linearGradient id="SVGID_1_" gradientUnits="userSpaceOnUse" x1="47.673" y1="28.905" x2="47.673" y2="71.957" gradientTransform="matrix(1 0 0 -1 0 102.609)"><stop offset="0" stop-color="#4fbfa5"/><stop offset="1" stop-color="#006a65"/></linearGradient><path d="M46.6 72.5L44.7 32c0-.7.4-1.4 1-1.4h3.9c.6 0 1.1.6 1 1.4l-1.9 40.5c-.1 1.6-2 1.6-2.1 0z" fill="url(#SVGID_1_)"/><radialGradient id="SVGID_00000141436328856267352360000011109850850537975722_" cx="38.268" cy="97.773" r="1" gradientTransform="matrix(4.8073 0 0 -4.8382 -137.48 495.936)" gradientUnits="userSpaceOnUse"><stop offset="0" stop-color="#4fbfa5"/><stop offset="1" stop-color="#00868a"/></radialGradient><path d="M47.7 28.4c2.7 0 4.8-2.2 4.8-4.8 0-2.7-2.2-4.8-4.8-4.8-2.7 0-4.8 2.2-4.8 4.8 0 2.6 2.1 4.8 4.8 4.8z" fill="url(#SVGID_00000141436328856267352360000011109850850537975722_)"/><path d="M50.8 32.2h-6.2c-.6 0-1.1-.5-1.1-1.2s.5-1.2 1.1-1.2h6.2c.6 0 1.1.5 1.1 1.2s-.5 1.2-1.1 1.2z" fill="#00868a"/><linearGradient id="SVGID_00000105405059751768906760000003118244542013215386_" gradientUnits="userSpaceOnUse" x1="47.673" y1="61.135" x2="88.174" y2="61.135" gradientTransform="matrix(1 0 0 -1 0 102.609)"><stop offset="0" stop-color="#4fbfa5"/><stop offset="1" stop-color="#00868a"/></linearGradient><path d="M87.7 43L59.2 31.8c-.3-.1-.6 0-.8.2-2.8 2.7-6.9 3.5-10.1 3.7h-.6v8.8c2 0 4 .6 5.7 1.8 1.3.9 2.6 1.9 3.8 2.8 2.7 2.1 6.1 2.7 9.4 1.8.6-.2.7-1 .2-1.3L58.3 44c-.8-.5-.1-1.7.7-1.3l11 6.6c.2.1.4.1.5.1l5.8-1.6c.7-.2.8-1.1.1-1.4l-14.3-6.2c-.8-.4-.3-1.7.6-1.4l17.9 7.5c.2.1.4.1.5 0l6.5-2c.7-.2.7-1.1.1-1.3z" fill="url(#SVGID_00000105405059751768906760000003118244542013215386_)"/><linearGradient id="SVGID_00000150070944711517333960000013060293894617537687_" gradientUnits="userSpaceOnUse" x1="7.174" y1="61.136" x2="47.673" y2="61.136" gradientTransform="matrix(1 0 0 -1 0 102.609)"><stop offset="0" stop-color="#4fbfa5"/><stop offset="1" stop-color="#00868a"/></linearGradient><path d="M47 35.6c-3.1-.2-7.3-1-10.1-3.7-.2-.2-.5-.3-.8-.2L7.6 43c-.6.2-.6 1.1 0 1.4l6.5 2c.2.1.4.1.5 0l17.9-7.5c.9-.3 1.4.9.6 1.4l-14.3 6.2c-.6.3-.5 1.2.1 1.4l5.8 1.6c.2 0 .4 0 .5-.1l11-6.6c.8-.4 1.5.8.7 1.3l-8.5 5.5c-.5.4-.4 1.2.2 1.3 3.2.9 6.7.2 9.4-1.8 1.1-.9 2.4-1.8 3.8-2.8 1.7-1.2 3.7-1.8 5.7-1.8v-8.8c0-.1-.2-.1-.5-.1z" fill="url(#SVGID_00000150070944711517333960000013060293894617537687_)"/><linearGradient id="SVGID_00000052073670848930360240000011219107166744887193_" gradientUnits="userSpaceOnUse" x1="35.062" y1="55.251" x2="45.64" y2="55.251" gradientTransform="matrix(1 0 0 -1 0 102.609)"><stop offset="0" stop-color="#4fbfa5"/><stop offset="1" stop-color="#00868a"/></linearGradient><path d="M45.6 51.3c-1.3-.1-2.5-.3-3.7-.5-2.2-.5-3.8-1.3-4.5-2.4-1-1.5.1-3.5 1.8-4.6.5-.3.6-1 .3-1.4-.3-.5-1-.6-1.4-.3-2.8 2-3.8 5.1-2.3 7.4 1.3 1.9 3.8 2.8 5.7 3.2.1 0 .2 0 .3.1 1.1-.6 2.5-.8 3.8-1v-.5z" fill="url(#SVGID_00000052073670848930360240000011219107166744887193_)"/><linearGradient id="SVGID_00000143581532244608027260000011563027517538590651_" gradientUnits="userSpaceOnUse" x1="48.994" y1="38.697" x2="53.082" y2="38.697" gradientTransform="matrix(1 0 0 -1 0 102.609)"><stop offset="0" stop-color="#00868a"/><stop offset="1" stop-color="#4fbfa5"/></linearGradient><path d="M49.2 62.1c1 .3 1.6.7 1.8 1.1.1.3 0 .7-.4 1-.4.3-.9.4-1.5.4l-.1 2h.1c1 0 1.9-.3 2.7-.8 1.2-.8 1.6-2.3 1.1-3.5-.2-.5-.6-.9-1-1.3-.8.2-1.6.4-2.6.5l-.1.6z" fill="url(#SVGID_00000143581532244608027260000011563027517538590651_)"/><linearGradient id="SVGID_00000024687425140546440980000015157520899141949114_" gradientUnits="userSpaceOnUse" x1="42.267" y1="42.853" x2="56.183" y2="42.853" gradientTransform="matrix(1 0 0 -1 0 102.609)"><stop offset="0" stop-color="#00868a"/><stop offset="1" stop-color="#4fbfa5"/></linearGradient><path d="M54.6 53.5c-.3-.3-.7-.5-1.1-.7-1.2.2-2.5.4-3.7.5h-.1v.5c1.5.2 2.8.5 3.7 1.3.5.4.8 1 .8 1.6 0 .5-.2 1-.6 1.3-.8.7-2.3 1.2-4.2 1.5-.3 0-.6.1-.9.1-.3 0-.5.1-.8.1-.6.1-1.1.2-1.6.3-1.1.3-1.9.6-2.5 1.1-.5.4-.8.8-1 1.3-.5 1.2-.1 2.7 1.1 3.5.7.5 1.7.8 2.7.8h.1l-.1-2c-.6 0-1.1-.2-1.5-.4-.4-.3-.6-.7-.4-1 .2-.5.8-.9 1.8-1.1.4-.1 1-.2 1.5-.3.3 0 .6-.1 1-.1.2 0 .4 0 .6-.1 1-.1 1.8-.3 2.6-.5 1.3-.4 2.3-.9 3.1-1.5.8-.7 1.3-1.8 1.3-2.8-.2-1.4-.8-2.5-1.8-3.4z" fill="url(#SVGID_00000024687425140546440980000015157520899141949114_)"/><linearGradient id="SVGID_00000094579660440484693560000016030456760585084836_" gradientUnits="userSpaceOnUse" x1="39.167" y1="51.096" x2="60.284" y2="51.096" gradientTransform="matrix(1 0 0 -1 0 102.609)"><stop offset="0" stop-color="#4fbfa5"/><stop offset="1" stop-color="#00868a"/></linearGradient><path d="M57.3 42.1c-.5-.3-1.1-.2-1.4.3-.3.5-.2 1.1.3 1.4 1.6 1.1 2.8 3.1 1.8 4.6-.7 1-2.3 1.9-4.5 2.4-1.2.3-2.4.4-3.7.5h-.2c-.6.1-1.3.1-1.9.2-.2 0-.4.1-.7.1-.2 0-.5.1-.7.1-.2 0-.5.1-.7.1-1.3.2-2.7.4-3.8 1-.4.2-.8.4-1.1.7-1 .8-1.5 2-1.5 3.2 0 1.1.5 2.1 1.3 2.8.8.7 1.8 1.2 3.1 1.5.6-.5 1.5-.9 2.5-1.1v-.5c-2-.2-3.4-.7-4.2-1.5-.4-.4-.6-.8-.6-1.3 0-.6.3-1.2.8-1.6.9-.8 2.2-1 3.7-1.3.3 0 .6-.1.9-.1.2 0 .5-.1.7-.1h.4c.6-.1 1.3-.2 2-.2h.1c1.2-.1 2.5-.3 3.7-.5.1 0 .2 0 .3-.1 1.9-.4 4.5-1.3 5.7-3.2 1.5-2.3.5-5.4-2.3-7.4z" fill="url(#SVGID_00000094579660440484693560000016030456760585084836_)"/></svg>