<svg xmlns="http://www.w3.org/2000/svg" viewBox="0 0 26 22"><path d="M13.1 6.3c-.6 0-1.3.1-1.8.4-.6.3-1.1.6-1.5 1-.5.4-.8.9-1.1 1.5-.2.6-.4 1.2-.4 1.8s.1 1.3.4 1.8.6 1.1 1 1.5c.4.4.9.7 1.5 1 .6.2 1.2.4 1.8.4.9 0 1.7-.2 2.4-.6.7-.4 1.3-1 1.7-1.7.4-.7.6-1.5.6-2.4 0-1.3-.5-2.4-1.4-3.3-.8-.9-1.9-1.4-3.2-1.4zm0 7.9c-.6 0-1.1-.1-1.6-.4-.5-.3-.9-.7-1.2-1.2-.3-.5-.4-1-.4-1.6 0-.4.1-.8.2-1.2.2-.4.4-.7.7-1 .3-.3.6-.5 1-.7.4-.2.8-.2 1.2-.2.9 0 1.6.3 2.2.9.6.6.9 1.4.9 2.2 0 .9-.3 1.6-.9 2.2-.5.7-1.3 1-2.1 1zm12.5-3.4v-.1C24.4 8 22.7 6 20.5 4.5c-2.3-1.5-4.7-2.2-7.4-2.2-1.8 0-3.4.3-5.1 1S4.9 4.9 3.6 6.1 1.2 8.8.5 10.6v.8c1.1 2.6 2.8 4.6 5.1 6 2.3 1.4 4.8 2.2 7.4 2.2 1.8 0 3.4-.3 5.1-.9 1.6-.6 3.1-1.6 4.4-2.8 1.3-1.2 2.3-2.7 3.1-4.4v-.7c0 .1 0 .1 0 0zM13 18.1c-2.3 0-4.5-.6-6.5-1.8S3 13.3 2 11c1-2.3 2.6-4 4.6-5.3 2-1.2 4.2-1.9 6.5-1.9 1.5 0 3 .3 4.3.8 1.4.5 2.7 1.3 3.8 2.4 1.2 1.1 2.1 2.4 2.8 3.9-1 2.3-2.5 4-4.5 5.2s-4.2 2-6.5 2z" fill="#00868a"/></svg>