<?xml version="1.0" encoding="utf-8"?>
<!-- Generator: Adobe Illustrator 26.0.1, SVG Export Plug-In . SVG Version: 6.00 Build 0)  -->
<svg version="1.1" id="Layer_1" xmlns="http://www.w3.org/2000/svg" xmlns:xlink="http://www.w3.org/1999/xlink" x="0px" y="0px"
	 viewBox="0 0 95.5 85.3" style="enable-background:new 0 0 95.5 85.3;" xml:space="preserve">
<style type="text/css">
	.st0{fill:url(#SVGID_1_);}
	.st1{fill:url(#SVGID_00000066485511371945632900000015270718809592540343_);}
	.st2{fill:#00868A;}
	.st3{fill:url(#SVGID_00000134251572409930113020000007046040591794433210_);}
	.st4{fill:url(#SVGID_00000045609138628854842600000001302990318216051888_);}
	.st5{fill:url(#SVGID_00000102503293374890009290000003451491641570779580_);}
	.st6{fill:url(#SVGID_00000135648867907623093540000001017938988062588819_);}
	.st7{fill:url(#SVGID_00000137838090491298055410000002887401688336307603_);}
	.st8{fill:url(#SVGID_00000147937500379396162810000004865366601062827195_);}
</style>
<linearGradient id="SVGID_1_" gradientUnits="userSpaceOnUse" x1="47.673" y1="28.9053" x2="47.673" y2="71.9574" gradientTransform="matrix(1 0 0 -1 0 102.6087)">
	<stop  offset="0" style="stop-color:#4FBFA5"/>
	<stop  offset="1" style="stop-color:#006A65"/>
</linearGradient>
<path class="st0" d="M46.6,72.5L44.7,32c0-0.7,0.4-1.4,1-1.4h3.9c0.6,0,1.1,0.6,1,1.4l-1.9,40.5C48.6,74.1,46.7,74.1,46.6,72.5z"/>
<radialGradient id="SVGID_00000141436328856267352360000011109850850537975722_" cx="38.2678" cy="97.7727" r="1" gradientTransform="matrix(4.8073 0 0 -4.8382 -137.4799 495.9361)" gradientUnits="userSpaceOnUse">
	<stop  offset="0" style="stop-color:#4FBFA5"/>
	<stop  offset="1" style="stop-color:#00868A"/>
</radialGradient>
<path style="fill:url(#SVGID_00000141436328856267352360000011109850850537975722_);" d="M47.7,28.4c2.7,0,4.8-2.2,4.8-4.8
	c0-2.7-2.2-4.8-4.8-4.8c-2.7,0-4.8,2.2-4.8,4.8C42.9,26.2,45,28.4,47.7,28.4z"/>
<path class="st2" d="M50.8,32.2h-6.2c-0.6,0-1.1-0.5-1.1-1.2s0.5-1.2,1.1-1.2h6.2c0.6,0,1.1,0.5,1.1,1.2S51.4,32.2,50.8,32.2z"/>
<linearGradient id="SVGID_00000105405059751768906760000003118244542013215386_" gradientUnits="userSpaceOnUse" x1="47.6735" y1="61.1348" x2="88.1739" y2="61.1348" gradientTransform="matrix(1 0 0 -1 0 102.6087)">
	<stop  offset="0" style="stop-color:#4FBFA5"/>
	<stop  offset="1" style="stop-color:#00868A"/>
</linearGradient>
<path style="fill:url(#SVGID_00000105405059751768906760000003118244542013215386_);" d="M87.7,43L59.2,31.8c-0.3-0.1-0.6,0-0.8,0.2
	c-2.8,2.7-6.9,3.5-10.1,3.7c-0.2,0-0.4,0-0.6,0v8.8c2,0,4,0.6,5.7,1.8c1.3,0.9,2.6,1.9,3.8,2.8c2.7,2.1,6.1,2.7,9.4,1.8
	c0.6-0.2,0.7-1,0.2-1.3L58.3,44c-0.8-0.5-0.1-1.7,0.7-1.3l11,6.6c0.2,0.1,0.4,0.1,0.5,0.1l5.8-1.6c0.7-0.2,0.8-1.1,0.1-1.4
	l-14.3-6.2c-0.8-0.4-0.3-1.7,0.6-1.4l17.9,7.5c0.2,0.1,0.4,0.1,0.5,0l6.5-2C88.3,44.1,88.3,43.2,87.7,43z"/>
<linearGradient id="SVGID_00000150070944711517333960000013060293894617537687_" gradientUnits="userSpaceOnUse" x1="7.1739" y1="61.1356" x2="47.6734" y2="61.1356" gradientTransform="matrix(1 0 0 -1 0 102.6087)">
	<stop  offset="0" style="stop-color:#4FBFA5"/>
	<stop  offset="1" style="stop-color:#00868A"/>
</linearGradient>
<path style="fill:url(#SVGID_00000150070944711517333960000013060293894617537687_);" d="M47,35.6c-3.1-0.2-7.3-1-10.1-3.7
	c-0.2-0.2-0.5-0.3-0.8-0.2L7.6,43c-0.6,0.2-0.6,1.1,0,1.4l6.5,2c0.2,0.1,0.4,0.1,0.5,0l17.9-7.5c0.9-0.3,1.4,0.9,0.6,1.4l-14.3,6.2
	c-0.6,0.3-0.5,1.2,0.1,1.4l5.8,1.6c0.2,0,0.4,0,0.5-0.1l11-6.6c0.8-0.4,1.5,0.8,0.7,1.3l-8.5,5.5c-0.5,0.4-0.4,1.2,0.2,1.3
	c3.2,0.9,6.7,0.2,9.4-1.8c1.1-0.9,2.4-1.8,3.8-2.8c1.7-1.2,3.7-1.8,5.7-1.8v-8.8C47.5,35.6,47.3,35.6,47,35.6z"/>
<linearGradient id="SVGID_00000052073670848930360240000011219107166744887193_" gradientUnits="userSpaceOnUse" x1="35.0622" y1="55.2511" x2="45.6398" y2="55.2511" gradientTransform="matrix(1 0 0 -1 0 102.6087)">
	<stop  offset="0" style="stop-color:#4FBFA5"/>
	<stop  offset="1" style="stop-color:#00868A"/>
</linearGradient>
<path style="fill:url(#SVGID_00000052073670848930360240000011219107166744887193_);" d="M45.6,51.3c-1.3-0.1-2.5-0.3-3.7-0.5
	c-2.2-0.5-3.8-1.3-4.5-2.4c-1-1.5,0.1-3.5,1.8-4.6c0.5-0.3,0.6-1,0.3-1.4c-0.3-0.5-1-0.6-1.4-0.3c-2.8,2-3.8,5.1-2.3,7.4
	c1.3,1.9,3.8,2.8,5.7,3.2c0.1,0,0.2,0,0.3,0.1c1.1-0.6,2.5-0.8,3.8-1L45.6,51.3z"/>
<linearGradient id="SVGID_00000143581532244608027260000011563027517538590651_" gradientUnits="userSpaceOnUse" x1="48.9942" y1="38.6969" x2="53.0821" y2="38.6969" gradientTransform="matrix(1 0 0 -1 0 102.6087)">
	<stop  offset="0" style="stop-color:#00868A"/>
	<stop  offset="1" style="stop-color:#4FBFA5"/>
</linearGradient>
<path style="fill:url(#SVGID_00000143581532244608027260000011563027517538590651_);" d="M49.2,62.1c1,0.3,1.6,0.7,1.8,1.1
	c0.1,0.3,0,0.7-0.4,1c-0.4,0.3-0.9,0.4-1.5,0.4l-0.1,2c0,0,0,0,0.1,0c1,0,1.9-0.3,2.7-0.8c1.2-0.8,1.6-2.3,1.1-3.5
	c-0.2-0.5-0.6-0.9-1-1.3c-0.8,0.2-1.6,0.4-2.6,0.5L49.2,62.1z"/>
<linearGradient id="SVGID_00000024687425140546440980000015157520899141949114_" gradientUnits="userSpaceOnUse" x1="42.2671" y1="42.853" x2="56.1827" y2="42.853" gradientTransform="matrix(1 0 0 -1 0 102.6087)">
	<stop  offset="0" style="stop-color:#00868A"/>
	<stop  offset="1" style="stop-color:#4FBFA5"/>
</linearGradient>
<path style="fill:url(#SVGID_00000024687425140546440980000015157520899141949114_);" d="M54.6,53.5c-0.3-0.3-0.7-0.5-1.1-0.7
	c-1.2,0.2-2.5,0.4-3.7,0.5c0,0-0.1,0-0.1,0l0,0.5c1.5,0.2,2.8,0.5,3.7,1.3c0.5,0.4,0.8,1,0.8,1.6c0,0.5-0.2,1-0.6,1.3
	c-0.8,0.7-2.3,1.2-4.2,1.5c-0.3,0-0.6,0.1-0.9,0.1c-0.3,0-0.5,0.1-0.8,0.1c-0.6,0.1-1.1,0.2-1.6,0.3c-1.1,0.3-1.9,0.6-2.5,1.1
	c-0.5,0.4-0.8,0.8-1,1.3c-0.5,1.2-0.1,2.7,1.1,3.5c0.7,0.5,1.7,0.8,2.7,0.8c0,0,0,0,0.1,0l-0.1-2c-0.6,0-1.1-0.2-1.5-0.4
	c-0.4-0.3-0.6-0.7-0.4-1c0.2-0.5,0.8-0.9,1.8-1.1c0.4-0.1,1-0.2,1.5-0.3c0.3,0,0.6-0.1,1-0.1c0.2,0,0.4,0,0.6-0.1
	c1-0.1,1.8-0.3,2.6-0.5c1.3-0.4,2.3-0.9,3.1-1.5c0.8-0.7,1.3-1.8,1.3-2.8C56.2,55.5,55.6,54.4,54.6,53.5z"/>
<linearGradient id="SVGID_00000094579660440484693560000016030456760585084836_" gradientUnits="userSpaceOnUse" x1="39.1669" y1="51.0959" x2="60.2837" y2="51.0959" gradientTransform="matrix(1 0 0 -1 0 102.6087)">
	<stop  offset="0" style="stop-color:#4FBFA5"/>
	<stop  offset="1" style="stop-color:#00868A"/>
</linearGradient>
<path style="fill:url(#SVGID_00000094579660440484693560000016030456760585084836_);" d="M57.3,42.1c-0.5-0.3-1.1-0.2-1.4,0.3
	c-0.3,0.5-0.2,1.1,0.3,1.4c1.6,1.1,2.8,3.1,1.8,4.6c-0.7,1-2.3,1.9-4.5,2.4c-1.2,0.3-2.4,0.4-3.7,0.5c-0.1,0-0.1,0-0.2,0
	c-0.6,0.1-1.3,0.1-1.9,0.2c-0.2,0-0.4,0.1-0.7,0.1c-0.2,0-0.5,0.1-0.7,0.1c-0.2,0-0.5,0.1-0.7,0.1c-1.3,0.2-2.7,0.4-3.8,1
	c-0.4,0.2-0.8,0.4-1.1,0.7c-1,0.8-1.5,2-1.5,3.2c0,1.1,0.5,2.1,1.3,2.8c0.8,0.7,1.8,1.2,3.1,1.5c0.6-0.5,1.5-0.9,2.5-1.1l0-0.5
	c-2-0.2-3.4-0.7-4.2-1.5c-0.4-0.4-0.6-0.8-0.6-1.3c0-0.6,0.3-1.2,0.8-1.6c0.9-0.8,2.2-1,3.7-1.3c0.3,0,0.6-0.1,0.9-0.1
	c0.2,0,0.5-0.1,0.7-0.1c0.1,0,0.2,0,0.4,0c0.6-0.1,1.3-0.2,2-0.2c0,0,0.1,0,0.1,0c1.2-0.1,2.5-0.3,3.7-0.5c0.1,0,0.2,0,0.3-0.1
	c1.9-0.4,4.5-1.3,5.7-3.2C61.1,47.2,60.1,44.1,57.3,42.1z"/>
</svg>
